<?xml version="1.0" encoding="UTF-8"?>
<svg id="Layer_1" xmlns="http://www.w3.org/2000/svg" viewBox="0 0 219.56 328.28">
  <defs>
    <style>
      .cls-1 {
        fill: #231f20;
      }
    </style>
  </defs>
  <path class="cls-1" d="M109.78,213.08c34.99,0,63.35-28.36,63.35-63.35s-28.36-63.35-63.35-63.35-63.35,28.36-63.35,63.35,28.36,63.35,63.35,63.35"/>
  <path class="cls-1" d="M109.78,215.51c-36.27,0-65.79-29.51-65.79-65.79s29.51-65.79,65.79-65.79,65.79,29.51,65.79,65.79-29.51,65.79-65.79,65.79ZM109.78,88.81c-33.59,0-60.91,27.33-60.91,60.91s27.33,60.91,60.91,60.91,60.91-27.33,60.91-60.91-27.33-60.91-60.91-60.91Z"/>
  <g>
    <path class="cls-1" d="M109.78,325.78c-34.93,0-63.35-28.42-63.35-63.35,0-3.62,2.93-6.55,6.55-6.55s6.55,2.94,6.55,6.55c0,27.7,22.54,50.24,50.24,50.24s50.24-22.54,50.24-50.24-22.54-50.24-50.24-50.24c-3.62,0-6.55-2.94-6.55-6.55s2.93-6.55,6.55-6.55c34.93,0,63.35,28.42,63.35,63.35s-28.42,63.35-63.35,63.35Z"/>
    <path class="cls-1" d="M109.78,328.28c-36.31,0-65.85-29.54-65.85-65.85,0-4.99,4.06-9.05,9.05-9.05s9.05,4.06,9.05,9.05c0,26.33,21.42,47.74,47.74,47.74s47.74-21.42,47.74-47.74-21.42-47.74-47.74-47.74c-4.99,0-9.05-4.06-9.05-9.05s4.06-9.05,9.05-9.05c36.31,0,65.85,29.54,65.85,65.85s-29.54,65.85-65.85,65.85ZM52.98,258.38c-2.24,0-4.05,1.82-4.05,4.05,0,33.55,27.3,60.85,60.85,60.85s60.85-27.3,60.85-60.85-27.3-60.85-60.85-60.85c-2.24,0-4.05,1.82-4.05,4.05s1.82,4.05,4.05,4.05c29.08,0,52.74,23.66,52.74,52.74s-23.66,52.74-52.74,52.74-52.74-23.66-52.74-52.74c0-2.24-1.82-4.05-4.05-4.05Z"/>
  </g>
  <g>
    <path class="cls-1" d="M109.78,72.26c-4.04,0-7.31-3.27-7.31-7.31V9.81c0-4.04,3.27-7.31,7.31-7.31s7.31,3.27,7.31,7.31v55.14c0,4.04-3.27,7.31-7.31,7.31Z"/>
    <path class="cls-1" d="M109.78,74.76c-5.41,0-9.81-4.4-9.81-9.81V9.81C99.97,4.4,104.37,0,109.78,0s9.81,4.4,9.81,9.81v55.14c0,5.41-4.4,9.81-9.81,9.81ZM109.78,5c-2.65,0-4.81,2.16-4.81,4.81v55.14c0,2.65,2.16,4.81,4.81,4.81s4.81-2.16,4.81-4.81V9.81c0-2.65-2.16-4.81-4.81-4.81Z"/>
  </g>
  <g>
    <path class="cls-1" d="M109.78,285.28c-4.04,0-7.31-3.27-7.31-7.31v-64.27c0-4.04,3.27-7.31,7.31-7.31s7.31,3.27,7.31,7.31v64.27c0,4.04-3.27,7.31-7.31,7.31Z"/>
    <path class="cls-1" d="M109.78,287.78c-5.41,0-9.81-4.4-9.81-9.81v-64.27c0-5.41,4.4-9.81,9.81-9.81s9.81,4.4,9.81,9.81v64.27c0,5.41-4.4,9.81-9.81,9.81ZM109.78,208.89c-2.65,0-4.81,2.16-4.81,4.81v64.27c0,2.65,2.16,4.81,4.81,4.81s4.81-2.16,4.81-4.81v-64.27c0-2.65-2.16-4.81-4.81-4.81Z"/>
  </g>
  <g>
    <path class="cls-1" d="M48.8,95.48c-1.87,0-3.74-.71-5.17-2.14L4.64,54.35c-2.86-2.85-2.86-7.48,0-10.34,2.86-2.86,7.48-2.86,10.34,0l38.99,38.99c2.86,2.85,2.86,7.48,0,10.34-1.43,1.43-3.3,2.14-5.17,2.14Z"/>
    <path class="cls-1" d="M48.8,97.98c-2.62,0-5.08-1.02-6.94-2.87L2.87,56.12c-1.85-1.85-2.87-4.31-2.87-6.93s1.02-5.08,2.87-6.94c3.83-3.82,10.05-3.82,13.87,0l38.99,38.99c1.85,1.85,2.87,4.31,2.87,6.93s-1.02,5.08-2.87,6.94c-1.85,1.85-4.32,2.87-6.93,2.87ZM9.81,44.37c-1.23,0-2.46.47-3.4,1.41-.91.91-1.41,2.12-1.41,3.4s.5,2.49,1.41,3.4l38.99,38.99c1.82,1.82,4.98,1.82,6.8,0,.91-.91,1.41-2.12,1.41-3.4s-.5-2.49-1.41-3.4L13.21,45.78c-.94-.94-2.17-1.41-3.4-1.41Z"/>
  </g>
  <g>
    <path class="cls-1" d="M170.75,99.07c-1.87,0-3.74-.71-5.17-2.14-2.86-2.86-2.86-7.48,0-10.34l39-38.99c2.86-2.86,7.48-2.86,10.34,0,2.86,2.86,2.86,7.48,0,10.34l-39,38.99c-1.43,1.43-3.3,2.14-5.17,2.14Z"/>
    <path class="cls-1" d="M170.75,101.57c-2.62,0-5.08-1.02-6.94-2.87-1.85-1.85-2.87-4.32-2.87-6.94s1.02-5.08,2.87-6.93l39-38.99c3.83-3.83,10.05-3.82,13.87,0,1.85,1.85,2.87,4.32,2.87,6.94s-1.02,5.08-2.87,6.94l-39,38.99c-1.85,1.85-4.32,2.87-6.93,2.87ZM209.75,47.96c-1.23,0-2.46.47-3.4,1.41l-39,38.99c-.91.91-1.41,2.12-1.41,3.4s.5,2.49,1.41,3.4c1.82,1.82,4.98,1.82,6.8,0l39-38.99c.91-.91,1.41-2.12,1.41-3.4s-.5-2.49-1.41-3.4c-.94-.94-2.17-1.41-3.4-1.41Z"/>
  </g>
</svg>