<?xml version="1.0" encoding="UTF-8"?>
<svg id="Layer_1" xmlns="http://www.w3.org/2000/svg" viewBox="0 0 852.48 328.28">
  <defs>
    <style>
      .cls-1 {
        fill: #f8951d;
      }
    </style>
  </defs>
  <g>
    <path class="cls-1" d="M109.78,213.08c34.99,0,63.35-28.36,63.35-63.35s-28.36-63.35-63.35-63.35-63.35,28.36-63.35,63.35,28.36,63.35,63.35,63.35"/>
    <path class="cls-1" d="M109.78,215.51c-36.27,0-65.79-29.51-65.79-65.79s29.51-65.79,65.79-65.79,65.79,29.51,65.79,65.79-29.51,65.79-65.79,65.79ZM109.78,88.81c-33.59,0-60.91,27.33-60.91,60.91s27.33,60.91,60.91,60.91,60.91-27.33,60.91-60.91-27.33-60.91-60.91-60.91Z"/>
    <g>
      <path class="cls-1" d="M109.78,325.78c-34.93,0-63.35-28.42-63.35-63.35,0-3.62,2.93-6.55,6.55-6.55s6.55,2.94,6.55,6.55c0,27.7,22.54,50.24,50.24,50.24s50.24-22.54,50.24-50.24-22.54-50.24-50.24-50.24c-3.62,0-6.55-2.94-6.55-6.55s2.93-6.55,6.55-6.55c34.93,0,63.35,28.42,63.35,63.35s-28.42,63.35-63.35,63.35Z"/>
      <path class="cls-1" d="M109.78,328.28c-36.31,0-65.85-29.54-65.85-65.85,0-4.99,4.06-9.05,9.05-9.05s9.05,4.06,9.05,9.05c0,26.33,21.42,47.74,47.74,47.74s47.74-21.42,47.74-47.74-21.42-47.74-47.74-47.74c-4.99,0-9.05-4.06-9.05-9.05s4.06-9.05,9.05-9.05c36.31,0,65.85,29.54,65.85,65.85s-29.54,65.85-65.85,65.85ZM52.98,258.38c-2.24,0-4.05,1.82-4.05,4.05,0,33.55,27.3,60.85,60.85,60.85s60.85-27.3,60.85-60.85-27.3-60.85-60.85-60.85c-2.24,0-4.05,1.82-4.05,4.05s1.82,4.05,4.05,4.05c29.08,0,52.74,23.66,52.74,52.74s-23.66,52.74-52.74,52.74-52.74-23.66-52.74-52.74c0-2.24-1.82-4.05-4.05-4.05Z"/>
    </g>
    <g>
      <path class="cls-1" d="M109.78,72.26c-4.04,0-7.31-3.27-7.31-7.31V9.81c0-4.04,3.27-7.31,7.31-7.31s7.31,3.27,7.31,7.31v55.14c0,4.04-3.27,7.31-7.31,7.31Z"/>
      <path class="cls-1" d="M109.78,74.76c-5.41,0-9.81-4.4-9.81-9.81V9.81c0-5.41,4.4-9.81,9.81-9.81s9.81,4.4,9.81,9.81v55.14c0,5.41-4.4,9.81-9.81,9.81ZM109.78,5c-2.65,0-4.81,2.16-4.81,4.81v55.14c0,2.65,2.16,4.81,4.81,4.81s4.81-2.16,4.81-4.81V9.81c0-2.65-2.16-4.81-4.81-4.81Z"/>
    </g>
    <g>
      <path class="cls-1" d="M109.78,285.28c-4.04,0-7.31-3.27-7.31-7.31v-64.27c0-4.04,3.27-7.31,7.31-7.31s7.31,3.27,7.31,7.31v64.27c0,4.04-3.27,7.31-7.31,7.31Z"/>
      <path class="cls-1" d="M109.78,287.78c-5.41,0-9.81-4.4-9.81-9.81v-64.27c0-5.41,4.4-9.81,9.81-9.81s9.81,4.4,9.81,9.81v64.27c0,5.41-4.4,9.81-9.81,9.81ZM109.78,208.89c-2.65,0-4.81,2.16-4.81,4.81v64.27c0,2.65,2.16,4.81,4.81,4.81s4.81-2.16,4.81-4.81v-64.27c0-2.65-2.16-4.81-4.81-4.81Z"/>
    </g>
    <g>
      <path class="cls-1" d="M48.8,95.48c-1.87,0-3.74-.71-5.17-2.14L4.64,54.35c-2.86-2.85-2.86-7.48,0-10.34,2.86-2.86,7.48-2.86,10.34,0l38.99,38.99c2.86,2.85,2.86,7.48,0,10.34-1.43,1.43-3.3,2.14-5.17,2.14Z"/>
      <path class="cls-1" d="M48.8,97.98c-2.62,0-5.08-1.02-6.94-2.87L2.87,56.12c-1.85-1.85-2.87-4.31-2.87-6.93s1.02-5.08,2.87-6.94c3.83-3.82,10.05-3.82,13.87,0l38.99,38.99c1.85,1.85,2.87,4.31,2.87,6.93s-1.02,5.08-2.87,6.94c-1.85,1.85-4.32,2.87-6.93,2.87ZM9.81,44.37c-1.23,0-2.46.47-3.4,1.41-.91.91-1.41,2.12-1.41,3.4s.5,2.49,1.41,3.4l38.99,38.99c1.82,1.82,4.98,1.82,6.8,0,.91-.91,1.41-2.12,1.41-3.4s-.5-2.49-1.41-3.4L13.21,45.78c-.94-.94-2.17-1.41-3.4-1.41Z"/>
    </g>
    <g>
      <path class="cls-1" d="M170.75,99.07c-1.87,0-3.74-.71-5.17-2.14-2.86-2.86-2.86-7.48,0-10.34l39-38.99c2.86-2.86,7.48-2.86,10.34,0,2.86,2.86,2.86,7.48,0,10.34l-39,38.99c-1.43,1.43-3.3,2.14-5.17,2.14Z"/>
      <path class="cls-1" d="M170.75,101.57c-2.62,0-5.08-1.02-6.94-2.87-1.85-1.85-2.87-4.32-2.87-6.94s1.02-5.08,2.87-6.93l39-38.99c3.83-3.83,10.05-3.82,13.87,0,1.85,1.85,2.87,4.32,2.87,6.94s-1.02,5.08-2.87,6.94l-39,38.99c-1.85,1.85-4.32,2.87-6.93,2.87ZM209.75,47.96c-1.23,0-2.46.47-3.4,1.41l-39,38.99c-.91.91-1.41,2.12-1.41,3.4s.5,2.49,1.41,3.4c1.82,1.82,4.98,1.82,6.8,0l39-38.99c.91-.91,1.41-2.12,1.41-3.4s-.5-2.49-1.41-3.4c-.94-.94-2.17-1.41-3.4-1.41Z"/>
    </g>
  </g>
  <g>
    <path class="cls-1" d="M317.07,92.7c6.65,4.65,11.3,12.63,11.3,22.59s-2.95,15.89-6.36,20.18c-3.27,4.11-6.97,6.3-8.92,7.47l20.6,34.82h-34.56l-14.62-30.57h-3.85v30.57h-30.04v-91.71h39.87c11.3,0,19.94,1.99,26.58,6.64ZM294.74,123c1.46-1.06,3.32-2.39,3.32-6.38s-2.02-5.27-3.32-6.25c-1.36-1.02-3.32-1.73-6.65-1.73h-7.58v15.95h7.58c3.32,0,5.45-.66,6.65-1.59Z"/>
    <path class="cls-1" d="M368.37,86.05v91.71h-30.04v-91.71h30.04Z"/>
    <path class="cls-1" d="M408.91,86.05v27.91l19.27-27.91h35.22l-29.64,36.95,31.63,54.76h-35.89l-15.28-30.57-5.32,6.64v23.92h-29.9v-91.71h29.9Z"/>
    <path class="cls-1" d="M499.29,86.05v27.91l19.27-27.91h35.22l-29.64,36.95,31.63,54.76h-35.89l-15.28-30.57-5.32,6.64v23.92h-29.9v-91.71h29.9Z"/>
    <path class="cls-1" d="M589.8,86.05v91.71h-30.04v-91.71h30.04Z"/>
    <path class="cls-1" d="M260.9,252.96c8.51,7.18,20.47,9.97,24.45,9.97s6.78-1.2,6.78-3.85-3.32-3.72-6.65-4.78l-13.29-4.25c-12.75-4.08-21-12.17-21-26.31,0-21.13,19.07-30.17,37.61-30.17,12.23,0,24.72,4.39,32.7,11.03l-11.43,21.26c-6.91-6.11-17.01-8.77-23.02-8.77-3.56,0-6.22,1.2-6.22,3.4,0,3.72,6.83,4.53,13.69,6.8l6.12,2.03c13.66,4.53,21.4,12.84,21.4,26.71,0,21.88-19.76,31.76-39.07,31.76-10.63,0-22.86-2.92-35.35-12.23l13.29-22.59h0Z"/>
    <path class="cls-1" d="M326.69,240.46c0-29.9,21.27-47.45,49.84-47.45s49.84,17.54,49.84,47.45-21.26,47.32-49.84,47.32-49.84-17.41-49.84-47.32ZM396.07,239.8c0-12.63-7.58-21.4-19.54-21.4s-19.67,8.77-19.67,21.4,7.71,21.4,19.67,21.4,19.54-8.77,19.54-21.4Z"/>
    <path class="cls-1" d="M499.47,201.12c6.65,4.65,11.3,12.63,11.3,22.59s-2.95,15.89-6.36,20.18c-3.27,4.11-6.97,6.3-8.92,7.47l20.6,34.82h-34.56l-14.62-30.57h-3.85v30.57h-30.04v-91.71h39.87c11.3,0,19.94,1.99,26.58,6.64ZM477.14,231.42c1.46-1.06,3.32-2.39,3.32-6.38s-2.02-5.27-3.32-6.25c-1.36-1.02-3.32-1.73-6.65-1.73h-7.58v15.95h7.58c3.32,0,5.45-.66,6.65-1.59Z"/>
    <path class="cls-1" d="M550.77,194.48v91.71h-30.04v-91.71h30.04Z"/>
    <path class="cls-1" d="M621.22,194.48l31.9,91.71h-32.56l-3.59-12.89h-26.18l-3.45,12.89h-31.23l31.9-91.71h33.23ZM603.94,225.71l-6.78,24.59h13.56l-6.78-24.59Z"/>
    <path class="cls-1" d="M690.99,194.48l26.58,51.17s-.66-9.97-.66-16.61v-34.56h29.24v91.71h-31.23l-27.91-51.17s.67,9.97.67,16.61v34.56h-29.24v-91.71h32.56Z"/>
    <path class="cls-1" d="M752.8,240.46c0-29.9,21.27-47.45,49.84-47.45s49.84,17.54,49.84,47.45-21.26,47.32-49.84,47.32-49.84-17.41-49.84-47.32ZM822.18,239.8c0-12.63-7.58-21.4-19.54-21.4s-19.67,8.77-19.67,21.4,7.71,21.4,19.67,21.4,19.54-8.77,19.54-21.4Z"/>
  </g>
</svg>