<svg width="40" height="39" viewBox="0 0 40 39" fill="none" xmlns="http://www.w3.org/2000/svg">
<path d="M29.2002 16.898C29.3627 16.9144 29.5097 16.9419 29.6523 16.9806L29.6328 16.9761V24.1245C29.4642 24.1767 29.268 24.2138 29.0655 24.2281L29.0571 24.2286C28.8304 24.2469 28.6032 24.2555 28.3756 24.2546H28.3557C27.8803 24.2546 27.4228 24.1779 26.9951 24.0361L27.0256 24.0449C26.596 23.9072 26.2277 23.6826 25.9253 23.3903L25.9261 23.391C25.6105 23.0731 25.3608 22.689 25.1998 22.2616L25.1925 22.2394C25.0176 21.7724 24.9163 21.2326 24.9163 20.6693C24.9163 20.6317 24.9168 20.5943 24.9177 20.557L24.9176 20.5625C24.9124 20.4932 24.9096 20.4125 24.9096 20.3311C24.9096 18.997 25.6844 17.8439 26.8087 17.2972L26.8286 17.2884C27.3519 17.0236 27.9693 16.8686 28.6229 16.8686C28.6365 16.8686 28.6502 16.8686 28.6638 16.8688H28.6617C28.8422 16.872 29.0211 16.8802 29.2 16.8981L29.2002 16.898ZM33.1965 26.3512C32.4406 26.6767 31.554 26.9487 30.6331 27.1239L30.5518 27.1368C29.7967 27.2839 28.9271 27.3696 28.0381 27.3726H28.0355C28 27.3732 27.958 27.3735 27.916 27.3735C26.6921 27.3735 25.5314 27.1034 24.49 26.6198L24.5402 26.6407C23.5068 26.1546 22.6704 25.394 22.1048 24.4522L22.0907 24.427C21.527 23.4345 21.1947 22.2468 21.1947 20.9815C21.1947 20.8902 21.1964 20.7993 21.1998 20.7088L21.1994 20.7219C21.1993 20.7056 21.1992 20.6862 21.1992 20.6668C21.1992 19.4257 21.5301 18.2618 22.1083 17.2586L22.0908 17.2917C22.7118 16.2237 23.5933 15.3683 24.6505 14.7958L24.685 14.7788C25.808 14.1799 27.1411 13.8282 28.5564 13.8282C28.7606 13.8282 28.9631 13.8355 29.1636 13.8499L29.1367 13.8484C29.2766 13.8565 29.4425 13.8695 29.6344 13.8874V8.72816C29.6344 8.60614 29.6865 8.5444 29.7922 8.5444H33.0907C33.0964 8.54359 33.1031 8.54306 33.1099 8.54306C33.1802 8.54306 33.2383 8.59488 33.2482 8.66235L33.2484 8.66317C33.2492 8.66898 33.2496 8.67578 33.2496 8.68269C33.2496 8.68961 33.2492 8.69632 33.2483 8.70295L33.2484 8.70213V24.1814C33.2484 24.4791 33.2614 24.8011 33.2874 25.1508C33.3134 25.4988 33.3362 25.8127 33.3525 26.0925C33.3528 26.0974 33.353 26.1033 33.353 26.1092C33.353 26.2163 33.2894 26.3086 33.198 26.3504L33.1963 26.3511L33.1965 26.3512ZM20.7034 27.0343H16.9836C16.7233 27.0343 16.5379 27.0245 16.4338 26.8505C16.0841 26.169 15.7349 25.4924 15.3863 24.8207C15.0264 24.1295 14.6556 23.4442 14.2738 22.7648C13.8772 22.0616 13.4885 21.3541 13.1076 20.6423H13.0816C12.7291 21.3455 12.3669 22.0439 11.9951 22.7372C11.621 23.435 11.2502 24.1289 10.8826 24.8191C10.5169 25.5093 10.1423 26.1946 9.75867 26.875C9.68709 27.0328 9.56507 27.049 9.38944 27.049H5.80314C5.73318 27.049 5.69414 27.0767 5.686 27.0067C5.68417 26.9949 5.68315 26.9813 5.68315 26.9675C5.68315 26.9138 5.69873 26.8639 5.7257 26.8218L5.72505 26.8229L10.7785 18.5197L5.8552 10.1954C5.80152 10.1254 5.79338 10.0684 5.82917 10.0213C5.86366 9.981 5.91459 9.95558 5.97153 9.95558C5.97698 9.95558 5.98235 9.95578 5.98768 9.95623H5.98699H9.67912C9.68644 9.95582 9.6949 9.9557 9.70352 9.9557C9.77958 9.9557 9.85226 9.97022 9.91893 9.99662L9.91498 9.9952C9.97803 10.0319 10.0303 10.0805 10.0701 10.1384L10.0711 10.14C10.385 10.8393 10.7341 11.5376 11.1186 12.2349C11.5024 12.9326 11.8906 13.6222 12.2831 14.3037C12.6751 14.9852 13.0373 15.6748 13.3696 16.3726H13.3956C13.7421 15.6569 14.0956 14.9586 14.4561 14.2777C14.8172 13.5962 15.1837 12.9109 15.5556 12.2218C15.9313 11.5305 16.2935 10.8452 16.6421 10.1659C16.6627 10.098 16.6986 10.0399 16.7461 9.99357L16.7462 9.99349C16.7968 9.96778 16.8565 9.95273 16.9196 9.95273C16.9324 9.95273 16.9451 9.95334 16.9577 9.95456L16.9561 9.95444H20.3862C20.3971 9.95159 20.4095 9.95005 20.4224 9.95005C20.5054 9.95005 20.5727 10.0173 20.5727 10.1003C20.5727 10.1469 20.5515 10.1886 20.5182 10.2161L20.518 10.2163L20.5196 10.2228L15.6482 18.2626L20.8595 26.8C20.8811 26.8377 20.8938 26.8829 20.8938 26.931C20.8938 26.9544 20.8907 26.9771 20.8851 26.9987L20.8855 26.9968C20.8693 27.0554 20.8091 27.0163 20.7033 27.0342L20.7034 27.0343ZM30.6347 0.211914H8.40078C3.76111 0.211914 0 3.97303 0 8.61269V29.8709C0 34.5105 3.76111 38.2717 8.40078 38.2717H30.6347C35.2744 38.2717 39.0355 34.5105 39.0355 29.8709V8.61269C39.0355 3.97303 35.2744 0.211914 30.6347 0.211914Z" fill="black"/>
</svg>
