<svg width="21" height="22" viewBox="0 0 21 22" fill="none" xmlns="http://www.w3.org/2000/svg">
<path fill-rule="evenodd" clip-rule="evenodd" d="M13.6236 2.63874C12.6335 2.19572 11.5724 1.96847 10.5012 1.96998H10.4989C9.38927 1.9685 8.29104 2.21236 7.27142 2.68664C6.25179 3.16092 5.33221 3.85564 4.56895 4.72829L4.56733 4.73014C3.12088 6.37535 2.31533 8.56131 2.31819 10.8335L2.31819 10.8348C2.31819 15.7309 5.98117 19.6997 10.5 19.6997H10.5012C11.5724 19.7012 12.6335 19.474 13.6236 19.031C14.6138 18.5879 15.5137 17.9379 16.2718 17.1178L16.2735 17.116C17.0379 16.2935 17.6443 15.3151 18.0577 14.2372C18.4711 13.1593 18.6832 12.0033 18.6818 10.8361V10.8336C18.6832 9.66634 18.4711 8.51038 18.0577 7.43249C17.6443 6.35459 17.0379 5.37614 16.2735 4.55367L16.2718 4.55185C15.5137 3.73184 14.6138 3.08175 13.6236 2.63874ZM10.5 7.53464e-06C11.8097 -0.00166839 13.107 0.276253 14.3176 0.817902C15.5282 1.35954 16.6284 2.15429 17.5555 3.15674C18.49 4.16243 19.2313 5.35874 19.7367 6.6766C20.2421 7.99447 20.5015 9.40775 20.5 10.8348C20.5015 12.2619 20.2421 13.6752 19.7367 14.9931C19.2313 16.311 18.4899 17.5073 17.5554 18.513C16.6284 19.5154 15.5282 20.3102 14.3176 20.8518C13.1066 21.3936 11.809 21.6715 10.4988 21.6697C4.9766 21.669 0.500357 16.8189 0.500008 10.8355C0.496664 8.05716 1.48158 5.38424 3.25005 3.3723C4.1833 2.30555 5.30759 1.45628 6.55416 0.87644C7.80073 0.296595 9.14337 -0.00162765 10.5 7.53464e-06Z" fill="black"/>
<path fill-rule="evenodd" clip-rule="evenodd" d="M18.8514 9.81892C19.1586 9.83605 19.4094 9.85003 19.591 9.85003C20.0931 9.85003 20.5001 10.291 20.5001 10.835C20.5001 11.379 20.0931 11.82 19.591 11.82C19.3246 11.82 18.9994 11.8036 18.6274 11.7849C16.9107 11.6986 14.1993 11.5622 11.696 12.7529C8.28892 14.374 5.83617 16.8882 4.80325 18.3907C4.50332 18.827 3.93378 18.9172 3.53113 18.5922C3.12848 18.2673 3.0452 17.6502 3.34512 17.2139C4.55764 15.4502 7.25668 12.7135 10.965 10.9492L10.9651 10.9491C13.9194 9.54393 17.2008 9.72689 18.8514 9.81892Z" fill="black"/>
<path fill-rule="evenodd" clip-rule="evenodd" d="M6.42271 1.03323C6.76324 0.63349 7.33839 0.608538 7.70733 0.977502C9.15473 2.42499 12.4 6.18399 13.6312 10.019C14.2318 11.8898 14.6372 13.9536 14.9241 15.683C15.0611 16.5086 15.1724 17.2665 15.2647 17.8947L15.2786 17.9893C15.376 18.6524 15.4469 19.1254 15.5045 19.4006C15.6157 19.9311 15.3089 20.4588 14.8193 20.5792C14.3296 20.6996 13.8426 20.3672 13.7315 19.8367C13.6573 19.4828 13.5759 18.9312 13.483 18.299L13.4696 18.2077C13.3771 17.5777 13.2683 16.8372 13.1346 16.0316C12.8534 14.3366 12.4678 12.3915 11.9139 10.6662C10.836 7.30879 7.87219 3.82322 6.47414 2.4251C6.1052 2.05613 6.08217 1.43297 6.42271 1.03323Z" fill="black"/>
<path fill-rule="evenodd" clip-rule="evenodd" d="M17.6172 3.22846C17.9411 3.6441 17.8927 4.26555 17.5091 4.6165C17.4321 4.68691 17.3394 4.77349 17.232 4.87375C16.1934 5.8434 13.7839 8.09301 11.0087 9.37703C9.4142 10.1148 7.43031 10.4355 5.68159 10.567C3.91646 10.6998 2.30948 10.645 1.42467 10.5871C0.923503 10.5543 0.541747 10.0876 0.571992 9.54458C0.602237 9.00157 1.03303 8.58795 1.53419 8.62072C2.36666 8.67515 3.89126 8.72696 5.55568 8.60178C7.2365 8.47536 8.9801 8.17356 10.2947 7.56533C12.789 6.41124 14.9831 4.36926 16.0414 3.38422C16.1525 3.28087 16.251 3.18916 16.3361 3.11132C16.7197 2.76037 17.2933 2.81281 17.6172 3.22846ZM1.74414 13.6741C2.20818 13.4664 2.73976 13.7056 2.93146 14.2084C3.65271 16.1 4.95351 17.6646 6.61483 18.6387C7.05639 18.8976 7.22064 19.4954 6.98168 19.9738C6.74272 20.4522 6.19105 20.6302 5.74948 20.3713C3.72053 19.1816 2.13189 17.2708 1.25103 14.9606C1.05933 14.4578 1.2801 13.8818 1.74414 13.6741Z" fill="black"/>
<path fill-rule="evenodd" clip-rule="evenodd" d="M6.55416 0.876439C7.80109 0.296429 9.14414 -0.00179793 10.5011 8.15446e-06C11.0032 0.000676388 11.4097 0.442211 11.4091 0.986203C11.4085 1.53019 11.001 1.97065 10.4989 1.96998C9.38927 1.9685 8.29104 2.21236 7.27142 2.68664C6.25179 3.16092 5.33221 3.85564 4.56895 4.72829L4.56733 4.73014C3.12088 6.37535 2.31533 8.56131 2.31819 10.8335C2.31887 11.3775 1.91241 11.8191 1.41034 11.8198C0.908262 11.8206 0.500694 11.3802 0.500009 10.8362C0.496512 8.05757 1.48145 5.38439 3.25005 3.3723C4.1833 2.30555 5.30759 1.45628 6.55416 0.876439ZM13.3035 1.40967C13.5048 0.911297 14.0408 0.684054 14.5008 0.90211C15.6392 1.44178 16.6749 2.20622 17.5552 3.15642C18.4898 4.16217 19.2313 5.3586 19.7367 6.6766C20.2423 7.99486 20.5017 9.40859 20.5 10.8361C20.4999 12.1677 20.2775 13.4458 19.8697 14.6274C19.6938 15.1369 19.17 15.3954 18.6997 15.2049C18.2294 15.0143 17.9908 14.4467 18.1667 13.9372C18.4996 12.9729 18.6818 11.9279 18.6818 10.8348V10.8336C18.6832 9.66634 18.4711 8.51038 18.0577 7.43249C17.6443 6.35459 17.0379 5.37614 16.2735 4.55366L16.2724 4.55249C15.5518 3.77454 14.7039 3.14869 13.772 2.70689C13.312 2.48883 13.1022 1.90805 13.3035 1.40967ZM17.5575 17.1191C17.9122 17.5041 17.9117 18.1277 17.5563 18.512C16.6291 19.5149 15.5286 20.31 14.3176 20.8518C13.1066 21.3936 11.809 21.6715 10.4988 21.6697C9.99675 21.669 9.59026 21.2274 9.59091 20.6834C9.59156 20.1394 9.9991 19.699 10.5012 19.6997C11.5724 19.7012 12.6335 19.474 13.6236 19.031C14.6138 18.5879 15.5137 17.9379 16.2718 17.1178C16.6272 16.7335 17.2028 16.7341 17.5575 17.1191Z" fill="black"/>
</svg>
