<svg width="11" height="11" viewBox="0 0 11 11" fill="none" xmlns="http://www.w3.org/2000/svg">
<path d="M9.12421 7.09508H8.50679C8.42492 7.09508 8.3464 7.12761 8.2885 7.1855C8.23061 7.2434 8.19808 7.32192 8.19808 7.40379V9.56476H2.0239V3.39057H4.80228C4.88416 3.39057 4.96268 3.35805 5.02057 3.30015C5.07847 3.24226 5.11099 3.16374 5.11099 3.08186V2.46444C5.11099 2.38257 5.07847 2.30405 5.02057 2.24615C4.96268 2.18826 4.88416 2.15574 4.80228 2.15574H1.71519C1.46957 2.15574 1.234 2.25331 1.06032 2.42699C0.886636 2.60067 0.789063 2.83624 0.789062 3.08186L0.789063 9.87347C0.789063 10.1191 0.886636 10.3547 1.06032 10.5283C1.234 10.702 1.46957 10.7996 1.71519 10.7996H8.50679C8.75242 10.7996 8.98798 10.702 9.16167 10.5283C9.33535 10.3547 9.43292 10.1191 9.43292 9.87347V7.40379C9.43292 7.32192 9.4004 7.2434 9.3425 7.1855C9.28461 7.12761 9.20609 7.09508 9.12421 7.09508ZM10.2047 0.920898H7.73502C7.3227 0.920898 7.11664 1.42081 7.40702 1.71197L8.0964 2.40135L3.3938 7.10222C3.35063 7.14524 3.31637 7.19636 3.293 7.25265C3.26963 7.30893 3.2576 7.36928 3.2576 7.43023C3.2576 7.49117 3.26963 7.55152 3.293 7.6078C3.31637 7.66409 3.35063 7.71521 3.3938 7.75823L3.8312 8.19486C3.87422 8.23803 3.92534 8.27228 3.98162 8.29566C4.03791 8.31903 4.09826 8.33106 4.1592 8.33106C4.22015 8.33106 4.28049 8.31903 4.33678 8.29566C4.39307 8.27228 4.44419 8.23803 4.48721 8.19486L9.1875 3.49322L9.87669 4.18164C10.1661 4.47106 10.6678 4.26846 10.6678 3.85364V1.38396C10.6678 1.26115 10.619 1.14337 10.5321 1.05653C10.4453 0.969685 10.3275 0.920898 10.2047 0.920898Z" fill="white"/>
</svg>
