<svg width="256" height="256" viewBox="0 0 256 256" fill="none" xmlns="http://www.w3.org/2000/svg">
<path d="M186.6 94C193.779 88.7939 199.125 81.4492 201.874 73.0183C204.623 64.5873 204.632 55.5027 201.901 47.0659C199.17 38.6292 193.839 31.2732 186.672 26.052C179.504 20.8308 170.868 18.0122 162 18H94C85.1323 18.0122 76.496 20.8308 69.3284 26.052C62.1607 31.2732 56.8296 38.6292 54.0987 47.0659C51.3679 55.5027 51.3775 64.5873 54.1261 73.0183C56.8747 81.4492 62.2214 88.7939 69.4 94C64.0105 97.8815 59.621 102.989 56.5934 108.9C53.5658 114.812 51.9869 121.358 51.9869 128C51.9869 134.642 53.5658 141.188 56.5934 147.1C59.621 153.011 64.0105 158.118 69.4 162C63.5704 166.213 58.9203 171.852 55.8953 178.377C52.8702 184.903 51.5717 192.096 52.1241 199.267C52.6764 206.438 55.0611 213.348 59.0497 219.333C63.0383 225.318 68.4972 230.179 74.9032 233.449C81.3092 236.719 88.4477 238.29 95.6348 238.01C102.822 237.73 109.817 235.609 115.949 231.85C122.081 228.092 127.145 222.821 130.656 216.544C134.167 210.266 136.007 203.192 136 196V160.9C140.359 164.578 145.423 167.33 150.88 168.988C156.338 170.645 162.076 171.173 167.745 170.541C173.414 169.908 178.894 168.127 183.852 165.306C188.81 162.486 193.141 158.685 196.582 154.136C200.023 149.587 202.501 144.384 203.866 138.846C205.23 133.307 205.452 127.549 204.518 121.922C203.584 116.295 201.513 110.917 198.433 106.117C195.352 101.316 191.326 97.1936 186.6 94ZM188 60C187.974 66.8875 185.226 73.4854 180.356 78.3557C175.485 83.2259 168.888 85.9737 162 86H136V34H162C168.888 34.0263 175.485 36.7741 180.356 41.6443C185.226 46.5146 187.974 53.1125 188 60ZM68 60C68.0263 53.1125 70.7741 46.5146 75.6443 41.6443C80.5146 36.7741 87.1125 34.0263 94 34H120V86H94C87.1125 85.9737 80.5146 83.2259 75.6443 78.3557C70.7741 73.4854 68.0263 66.8875 68 60ZM68 128C68.0263 121.112 70.7741 114.515 75.6443 109.644C80.5146 104.774 87.1125 102.026 94 102H120V154H94C87.1125 153.974 80.5146 151.226 75.6443 146.356C70.7741 141.485 68.0263 134.888 68 128ZM94 222C87.1044 222 80.4912 219.261 75.6152 214.385C70.7393 209.509 68 202.896 68 196C68 189.104 70.7393 182.491 75.6152 177.615C80.4912 172.739 87.1044 170 94 170H120V196C119.974 202.888 117.226 209.485 112.356 214.356C107.485 219.226 100.888 221.974 94 222ZM162 154C155.104 154 148.491 151.261 143.615 146.385C138.739 141.509 136 134.896 136 128C136 121.104 138.739 114.491 143.615 109.615C148.491 104.739 155.104 102 162 102C168.896 102 175.509 104.739 180.385 109.615C185.261 114.491 188 121.104 188 128C188 134.896 185.261 141.509 180.385 146.385C175.509 151.261 168.896 154 162 154Z" fill="black"/>
</svg>
