<?xml version="1.0" encoding="UTF-8"?>
<svg id="Layer_1" data-name="Layer 1" xmlns="http://www.w3.org/2000/svg" viewBox="0 0 300 300">
  <defs>
    <style>
      .cls-1 {
        fill: #fff;
      }
    </style>
  </defs>
  <path class="cls-1" d="m149.69,119.72c-46.58,0-84.47,37.89-84.47,84.47,0,83.02,53.18,2.09,99.75,2.09s69.19,17.75,69.19-2.09c0-46.58-37.89-84.47-84.47-84.47Z"/>
  <path class="cls-1" d="m119.23,42.83c-.03-.68-.03-1.36-.01-2.04l-.08,1.91c.08-1.66.32-3.29.8-4.88l-.55,1.8c.38-1.2.89-2.34,1.55-3.41l-.99,1.6c.52-.81,1.11-1.54,1.79-2.22l-1.39,1.31c.77-.72,1.6-1.33,2.52-1.85l-1.74.94c.84-.44,1.71-.77,2.63-.98l-1.93.44c.74-.15,1.47-.22,2.22-.2l-1.91-.08c.71.04,1.39.16,2.08.35l-1.8-.55c.72.23,1.39.54,2.05.92l-1.6-.99c.79.49,1.5,1.08,2.15,1.74l-1.31-1.39c.77.82,1.41,1.72,1.95,2.71l-.94-1.74c.57,1.07.99,2.19,1.28,3.37l-.44-1.93c.36,1.65.48,3.31.42,5l.08-1.91c-.28,5.67-2.29,11.11-3.67,16.57-1.5,5.95-2.4,12.35-1.08,18.42.91,4.18,2.38,8.21,5.18,11.52,1.26,1.48,2.75,2.59,4.72,2.93,1.8.31,4.12-.14,5.58-1.3s2.69-2.81,2.93-4.72-.03-4.07-1.3-5.58c-.75-.88-1.4-1.83-1.96-2.84l.94,1.74c-.84-1.59-1.44-3.26-1.85-5.01l.44,1.93c-.5-2.3-.66-4.64-.57-6.99l-.08,1.91c.26-5.22,1.75-10.24,3.13-15.25,1.46-5.32,2.85-10.95,2.01-16.5-.97-6.43-4.37-12.04-10.12-15.24s-13.4-1.98-18.24,2.24c-2.71,2.36-4.89,5.22-6.05,8.66s-1.67,7.1-1.51,10.91,4.2,7.2,8.01,6.68c4.12-.56,6.85-3.88,6.68-8.01h0Z"/>
  <path class="cls-1" d="m163.71,212.66c-3.43,0-6.21,10.62-6.21,14.04s2.79,6.21,6.21,6.21,6.21-2.79,6.21-6.21-2.79-14.04-6.21-14.04Z"/>
  <circle class="cls-1" cx="148.52" cy="97.89" r="8.97"/>
  <path class="cls-1" d="m167.69,80.68l14.21-27.94c2.32-4.56.5-10.16-4.07-12.48-2.21-1.12-4.73-1.32-7.09-.55s-4.27,2.41-5.39,4.62l-14.21,27.94c-1.13,2.2-1.32,4.72-.55,7.08h0c.77,2.36,2.41,4.28,4.62,5.4s4.73,1.32,7.09.55,4.27-2.41,5.39-4.62Z"/>
  <path class="cls-1" d="m80.31,105.12L30.24,55.05c-4.91-4.91-12.9-4.91-17.81,0-2.38,2.38-3.69,5.55-3.69,8.91s1.31,6.52,3.69,8.9l50.07,50.07c2.37,2.38,5.54,3.69,8.9,3.69h.01c3.36,0,6.52-1.31,8.9-3.69,2.38-2.38,3.69-5.55,3.69-8.91s-1.31-6.52-3.69-8.9Z"/>
  <path class="cls-1" d="m286.96,59.65c-4.91-4.91-12.9-4.91-17.81,0l-50.07,50.07c-2.38,2.37-3.69,5.53-3.69,8.9s1.31,6.53,3.69,8.91c2.37,2.38,5.54,3.69,8.9,3.69h.01c3.36-.01,6.52-1.32,8.9-3.7l50.07-50.07c2.38-2.37,3.69-5.54,3.69-8.9s-1.31-6.52-3.69-8.9Z"/>
</svg>