<svg width="21" height="18" viewBox="0 0 21 18" fill="none" xmlns="http://www.w3.org/2000/svg">
<path d="M2.5 17.5027C1.95 17.5027 1.47933 17.2907 1.088 16.8667C0.696 16.442 0.5 15.9317 0.5 15.3358V2.33396C0.5 1.73804 0.696 1.22808 1.088 0.804081C1.47933 0.379355 1.95 0.166992 2.5 0.166992H18.5C19.05 0.166992 19.521 0.379355 19.913 0.804081C20.3043 1.22808 20.5 1.73804 20.5 2.33396V15.3358C20.5 15.9317 20.3043 16.442 19.913 16.8667C19.521 17.2907 19.05 17.5027 18.5 17.5027H2.5ZM10.5 9.72874C10.5833 9.72874 10.6707 9.71502 10.762 9.68757C10.854 9.66084 10.9417 9.62039 11.025 9.56622L18.1 4.7718C18.2333 4.68151 18.3333 4.56883 18.4 4.43375C18.4667 4.29796 18.5 4.1488 18.5 3.98628C18.5 3.62511 18.3583 3.35424 18.075 3.17366C17.7917 2.99308 17.5 3.00211 17.2 3.20075L10.5 7.75138L3.8 3.20075C3.5 3.00211 3.20833 2.99742 2.925 3.18666C2.64167 3.37663 2.5 3.64317 2.5 3.98628C2.5 4.16686 2.53333 4.32468 2.6 4.45976C2.66667 4.59555 2.76667 4.69957 2.9 4.7718L9.975 9.56622C10.0583 9.62039 10.146 9.66084 10.238 9.68757C10.3293 9.71502 10.4167 9.72874 10.5 9.72874Z" fill="black"/>
</svg>
