<?xml version="1.0" encoding="utf-8"?>
<!-- Generator: Adobe Illustrator 26.5.2, SVG Export Plug-In . SVG Version: 6.00 Build 0)  -->
<svg version="1.1" id="Layer_2_00000181085818351029871630000001167504203180036754_"
	 xmlns="http://www.w3.org/2000/svg" xmlns:xlink="http://www.w3.org/1999/xlink" x="0px" y="0px" viewBox="0 0 281.9 369.5"
	 style="enable-background:new 0 0 281.9 369.5;" xml:space="preserve">
<style type="text/css">
	.st0{fill:#FFFFFF;}
</style>
<g id="Layer_1-2">
	<g>
		<path class="st0" d="M140.9,273.6c44.9,0,81.3-36.4,81.3-81.3s-36.4-81.3-81.3-81.3s-81.3,36.4-81.3,81.3S96,273.6,140.9,273.6"/>
		<path class="st0" d="M140.9,276.7c-46.6,0-84.5-37.9-84.5-84.5s37.9-84.5,84.5-84.5s84.5,37.9,84.5,84.5S187.5,276.7,140.9,276.7z
			 M140.9,114c-43.1,0-78.2,35.1-78.2,78.2s35.1,78.2,78.2,78.2s78.2-35.1,78.2-78.2S184.1,114,140.9,114L140.9,114z"/>
		<g>
			<path class="st0" d="M140.9,92.8c-5.2,0-9.4-4.2-9.4-9.4V12.6c0-5.2,4.2-9.4,9.4-9.4s9.4,4.2,9.4,9.4v70.8
				C150.3,88.6,146.1,92.8,140.9,92.8L140.9,92.8z"/>
			<path class="st0" d="M140.9,96c-6.9,0-12.6-5.7-12.6-12.6V12.6C128.4,5.6,134,0,140.9,0s12.6,5.7,12.6,12.6v70.8
				C153.5,90.3,147.9,96,140.9,96z M140.9,6.4c-3.4,0-6.2,2.8-6.2,6.2v70.8c0,3.4,2.8,6.2,6.2,6.2s6.2-2.8,6.2-6.2V12.6
				C147.1,9.2,144.4,6.4,140.9,6.4L140.9,6.4z"/>
		</g>
		<g>
			<path class="st0" d="M140.9,366.3c-5.2,0-9.4-4.2-9.4-9.4v-82.5c0-5.2,4.2-9.4,9.4-9.4s9.4,4.2,9.4,9.4v82.5
				C150.3,362.1,146.1,366.3,140.9,366.3z"/>
			<path class="st0" d="M140.9,369.5c-6.9,0-12.6-5.6-12.6-12.6v-82.5c0-7,5.6-12.6,12.6-12.6s12.6,5.6,12.6,12.6v82.5
				C153.5,363.9,147.9,369.5,140.9,369.5z M140.9,268.2c-3.4,0-6.2,2.8-6.2,6.2v82.5c0,3.4,2.8,6.2,6.2,6.2s6.2-2.8,6.2-6.2v-82.5
				C147.1,271,144.4,268.2,140.9,268.2z"/>
		</g>
		<g>
			<path class="st0" d="M62.7,122.6c-2.4,0-4.8-0.9-6.6-2.8L6,69.8c-3.7-3.7-3.7-9.6,0-13.3c3.7-3.7,9.6-3.7,13.3,0l50.1,50.1
				c3.7,3.7,3.7,9.6,0,13.3C67.5,121.7,65.1,122.6,62.7,122.6z"/>
			<path class="st0" d="M62.7,125.8c-3.4,0-6.5-1.3-8.9-3.7L3.7,72.1C1.3,69.7,0,66.5,0,63.2s1.3-6.5,3.7-8.9
				c4.9-4.9,12.9-4.9,17.8,0l50.1,50.1c2.4,2.4,3.7,5.5,3.7,8.9s-1.3,6.5-3.7,8.9C69.2,124.5,66,125.8,62.7,125.8L62.7,125.8z
				 M12.6,57c-1.6,0-3.2,0.6-4.4,1.8c-1.2,1.2-1.8,2.7-1.8,4.4c0,1.7,0.6,3.2,1.8,4.4l50.1,50.1c2.3,2.3,6.4,2.3,8.7,0
				c1.2-1.2,1.8-2.7,1.8-4.4s-0.6-3.2-1.8-4.4L17,58.8C15.8,57.6,14.2,57,12.6,57z"/>
		</g>
		<g>
			<path class="st0" d="M219.2,127.2c-2.4,0-4.8-0.9-6.6-2.8c-3.7-3.7-3.7-9.6,0-13.3l50.1-50.1c3.7-3.7,9.6-3.7,13.3,0
				c3.7,3.7,3.7,9.6,0,13.3l-50.1,50.1C224,126.3,221.6,127.2,219.2,127.2L219.2,127.2z"/>
			<path class="st0" d="M219.2,130.4c-3.4,0-6.5-1.3-8.9-3.7c-2.4-2.4-3.7-5.5-3.7-8.9s1.3-6.5,3.7-8.9l50.1-50.1
				c4.9-4.9,12.9-4.9,17.8,0c2.4,2.4,3.7,5.5,3.7,8.9s-1.3,6.5-3.7,8.9l-50.1,50.1C225.8,129.1,222.6,130.4,219.2,130.4L219.2,130.4
				z M269.3,61.6c-1.6,0-3.2,0.6-4.4,1.8l-50.1,50.1c-1.2,1.2-1.8,2.7-1.8,4.4s0.6,3.2,1.8,4.4c2.3,2.3,6.4,2.3,8.7,0l50.1-50.1
				c1.2-1.2,1.8-2.7,1.8-4.4s-0.6-3.2-1.8-4.4C272.5,62.2,270.9,61.6,269.3,61.6L269.3,61.6z"/>
		</g>
	</g>
</g>
</svg>
