<svg width="72" height="34" viewBox="0 0 72 34" fill="none" xmlns="http://www.w3.org/2000/svg">
<path d="M35.9999 23.8063C34.6768 23.8063 33.6016 22.7286 33.6016 21.3969V3.23063C33.6016 1.90152 34.6743 0.821289 35.9999 0.821289C37.3254 0.821289 38.3982 1.89895 38.3982 3.23063V21.3995C38.3982 22.7286 37.3254 23.8089 35.9999 23.8089V23.8063Z" fill="white"/>
<path d="M35.9998 24.6297C34.2247 24.6297 32.7842 23.18 32.7842 21.3993V3.23042C32.7842 1.44715 34.2272 0 35.9998 0C37.7723 0 39.2154 1.44971 39.2154 3.23042V21.3993C39.2154 23.18 37.7723 24.6297 35.9998 24.6297V24.6297ZM35.9998 1.64728C35.1288 1.64728 34.4214 2.35803 34.4214 3.23299V21.3993C34.4214 22.2743 35.1288 22.985 35.9998 22.985C36.8707 22.985 37.5782 22.2743 37.5782 21.3993V3.23042C37.5782 2.35546 36.8707 1.64472 35.9998 1.64472V1.64728Z" fill="white"/>
<path d="M16.0041 31.4575C15.3911 31.4575 14.7781 31.2214 14.3082 30.7519L1.52235 17.9046C0.584998 16.9655 0.584998 15.4388 1.52235 14.4997C2.4597 13.558 3.97684 13.558 4.91164 14.4997L17.7 27.347C18.6374 28.2861 18.6374 29.8128 17.7 30.7519C17.2326 31.2214 16.6196 31.4575 16.0041 31.4575V31.4575Z" fill="white"/>
<path d="M16.004 32.2809C15.1458 32.2809 14.3361 31.9448 13.7308 31.3341L0.942462 18.4869C0.334587 17.8762 0 17.0654 0 16.2032C0 15.3411 0.334587 14.5277 0.942462 13.917C2.19652 12.6572 4.23725 12.6572 5.49131 13.917L18.2797 26.7643C18.8875 27.375 19.2221 28.1858 19.2221 29.0479C19.2221 29.9101 18.8875 30.7235 18.2797 31.3341C17.6718 31.9448 16.8647 32.2809 16.0065 32.2809H16.004ZM3.21561 14.6175C2.81206 14.6175 2.40851 14.7715 2.09947 15.0819C1.80064 15.3822 1.63718 15.7799 1.63718 16.2032C1.63718 16.6266 1.80064 17.0243 2.09947 17.3219L14.8878 30.1692C15.4829 30.7671 16.5225 30.7696 17.1176 30.1692C17.4164 29.869 17.5799 29.4713 17.5799 29.0479C17.5799 28.6246 17.4164 28.2269 17.1176 27.9292L4.33175 15.0819C4.02526 14.774 3.61916 14.6175 3.21561 14.6175Z" fill="white"/>
<path d="M55.9956 32.6382C55.3826 32.6382 54.7696 32.4021 54.2997 31.9326C53.3623 30.9909 53.3623 29.4668 54.2997 28.5277L67.0881 15.6804C68.0254 14.7387 69.5425 14.7387 70.4773 15.6804C71.4147 16.622 71.4147 18.1462 70.4773 19.0853L57.689 31.9326C57.2216 32.4021 56.6086 32.6382 55.9931 32.6382H55.9956Z" fill="white"/>
<path d="M55.9959 33.4616C55.1377 33.4616 54.3281 33.1255 53.7227 32.5148C53.1149 31.9041 52.7803 31.0933 52.7803 30.2286C52.7803 29.3639 53.1149 28.5531 53.7227 27.945L66.5111 15.0977C67.7652 13.8379 69.8059 13.8379 71.06 15.0977C71.6678 15.7084 72.0024 16.5192 72.0024 17.3813C72.0024 18.2435 71.6678 19.0568 71.06 19.6649L58.2716 32.5122C57.6637 33.1229 56.8566 33.459 55.9984 33.459L55.9959 33.4616ZM68.7842 15.8008C68.3807 15.8008 67.9772 15.9547 67.6681 16.2652L54.8797 29.1125C54.5809 29.4127 54.4175 29.8104 54.4175 30.2312C54.4175 30.652 54.5809 31.0523 54.8797 31.3525C55.4748 31.9503 56.5144 31.9529 57.1095 31.3525L69.8978 18.5052C70.1967 18.205 70.3601 17.8073 70.3601 17.3839C70.3601 16.9605 70.1967 16.5628 69.8978 16.2626C69.5913 15.9547 69.1852 15.7982 68.7817 15.7982L68.7842 15.8008Z" fill="white"/>
</svg>
