<svg width="69" height="86" viewBox="0 0 69 86" fill="none" xmlns="http://www.w3.org/2000/svg">
<path fill-rule="evenodd" clip-rule="evenodd" d="M42.7662 23.9068C40.4045 24.3052 37.9995 25.2613 34.8449 28.4159C30.3551 32.9057 28.2032 38.9726 26.9766 47.5383C26.4667 51.0989 26.161 54.6999 25.8253 58.655C25.752 59.5179 25.6773 60.3978 25.5987 61.2977C25.1785 66.1116 24.6506 71.4292 23.5574 76.6219C22.249 82.8369 16.15 86.8145 9.93498 85.5061C3.71994 84.1977 -0.257655 78.0987 1.05077 71.8837C1.83356 68.1654 2.27052 64.0557 2.68587 59.2976C2.75301 58.5284 2.81991 57.7371 2.88828 56.9284C3.22416 52.9553 3.59581 48.5591 4.20887 44.278C5.70023 33.8634 8.87692 21.857 18.5815 12.1524C24.864 5.86986 31.5288 2.47757 38.9401 1.22724C45.6156 0.101029 52.4086 0.856022 58.2012 1.49982L58.3733 1.51895C64.6857 2.22033 69.2343 7.90614 68.533 14.2186C67.8316 20.531 62.1458 25.0797 55.8333 24.3783C49.4124 23.6648 45.7975 23.3954 42.7662 23.9068Z" fill="#FFEBC6"/>
</svg>
