<svg width="84" height="77" viewBox="0 0 84 77" fill="none" xmlns="http://www.w3.org/2000/svg">
<path fill-rule="evenodd" clip-rule="evenodd" d="M81.1609 4.66149C85.2942 9.48374 84.7358 16.7437 79.9135 20.877C74.9157 25.1609 70.129 29.0913 65.439 32.9423C59.0187 38.2139 52.7797 43.3368 46.4285 49.0139C43.7582 51.4007 41.3715 54.0048 38.5578 57.0748C37.3045 58.4423 35.9665 59.9021 34.4811 61.4764C30.0935 66.1261 24.6508 71.4715 17.9141 75.2361C12.3698 78.3344 5.36363 76.3515 2.26534 70.8072C-0.832945 65.2629 1.14994 58.2567 6.69425 55.1584C10.194 53.2027 13.64 50.05 17.7528 45.6914C18.7008 44.6868 19.7261 43.5684 20.8084 42.3877C23.9273 38.9854 27.5199 35.0665 31.1006 31.8658C37.5455 26.105 44.6988 20.218 51.5975 14.5405C56.2624 10.7013 60.8109 6.95794 64.9453 3.41414C69.7676 -0.719211 77.0275 -0.160754 81.1609 4.66149Z" fill="#FFEBC6"/>
</svg>
