<?xml version="1.0" encoding="UTF-8"?>
<svg id="Layer_2" data-name="Layer 2" xmlns="http://www.w3.org/2000/svg" viewBox="0 0 281.9 276.71">
  <defs>
    <style>
      .cls-1 {
        fill: #fe950b;
      }
    </style>
  </defs>
  <g id="Layer_1-2" data-name="Layer 1">
    <g>
      <path class="cls-1" d="M140.95,273.58c44.92,0,81.34-36.41,81.34-81.34s-36.41-81.34-81.34-81.34-81.34,36.41-81.34,81.34,36.41,81.34,81.34,81.34"/>
      <path class="cls-1" d="M140.95,276.71c-46.57,0-84.47-37.89-84.47-84.47s37.89-84.47,84.47-84.47,84.47,37.89,84.47,84.47-37.89,84.47-84.47,84.47Zm0-162.68c-43.13,0-78.21,35.08-78.21,78.21s35.08,78.21,78.21,78.21,78.21-35.08,78.21-78.21-35.08-78.21-78.21-78.21Z"/>
      <g>
        <path class="cls-1" d="M140.95,92.78c-5.18,0-9.39-4.2-9.39-9.39V12.59c0-5.18,4.2-9.39,9.39-9.39s9.39,4.2,9.39,9.39V83.4c0,5.18-4.2,9.39-9.39,9.39Z"/>
        <path class="cls-1" d="M140.95,95.99c-6.95,0-12.59-5.65-12.59-12.59V12.59c0-6.95,5.65-12.59,12.59-12.59s12.59,5.65,12.59,12.59V83.4c0,6.94-5.65,12.59-12.59,12.59Zm0-89.57c-3.41,0-6.18,2.77-6.18,6.18V83.4c0,3.41,2.77,6.18,6.18,6.18s6.18-2.77,6.18-6.18V12.59c0-3.41-2.77-6.18-6.18-6.18Z"/>
      </g>
      <g>
        <path class="cls-1" d="M62.66,122.6c-2.4,0-4.8-.92-6.64-2.75L5.96,69.78c-3.67-3.66-3.67-9.61,0-13.27,3.67-3.67,9.61-3.67,13.27,0l50.07,50.07c3.67,3.66,3.67,9.61,0,13.27-1.83,1.83-4.23,2.75-6.64,2.75Z"/>
        <path class="cls-1" d="M62.66,125.81c-3.36,0-6.53-1.31-8.9-3.69L3.69,72.05c-2.38-2.38-3.69-5.54-3.69-8.9s1.31-6.53,3.69-8.91c4.91-4.91,12.9-4.91,17.81,0l50.07,50.07c2.38,2.38,3.69,5.54,3.69,8.9s-1.31,6.53-3.69,8.91c-2.38,2.38-5.54,3.69-8.9,3.69ZM12.59,56.97c-1.58,0-3.16,.6-4.37,1.81-1.17,1.17-1.81,2.72-1.81,4.37s.64,3.2,1.81,4.36l50.07,50.07c2.33,2.33,6.4,2.34,8.73,0,1.17-1.17,1.81-2.72,1.81-4.37s-.64-3.2-1.81-4.36L16.96,58.78c-1.2-1.2-2.79-1.81-4.37-1.81Z"/>
      </g>
      <g>
        <path class="cls-1" d="M219.24,127.2c-2.4,0-4.8-.92-6.64-2.75-3.67-3.67-3.67-9.61,0-13.27l50.07-50.07c3.67-3.67,9.61-3.67,13.27,0,3.67,3.67,3.67,9.61,0,13.27l-50.07,50.07c-1.83,1.83-4.23,2.75-6.64,2.75Z"/>
        <path class="cls-1" d="M219.24,130.41c-3.36,0-6.53-1.31-8.9-3.69-2.38-2.38-3.69-5.54-3.69-8.91s1.31-6.53,3.69-8.9l50.07-50.07c4.91-4.91,12.9-4.91,17.81,0,2.38,2.38,3.69,5.54,3.69,8.9s-1.31,6.53-3.69,8.9l-50.07,50.07c-2.38,2.38-5.54,3.69-8.9,3.69Zm50.07-68.83c-1.58,0-3.16,.6-4.37,1.81l-50.07,50.07c-1.17,1.17-1.81,2.72-1.81,4.36s.64,3.2,1.81,4.37c2.33,2.33,6.4,2.34,8.73,0l50.07-50.07c1.17-1.17,1.81-2.72,1.81-4.37s-.64-3.2-1.81-4.37c-1.2-1.2-2.79-1.81-4.37-1.81Z"/>
      </g>
    </g>
  </g>
</svg>