<svg width="119" height="111" viewBox="0 0 119 111" fill="none" xmlns="http://www.w3.org/2000/svg">
<path fill-rule="evenodd" clip-rule="evenodd" d="M12.7587 0.570705C19.1018 0.892612 23.983 6.29568 23.6611 12.6388C23.384 18.0988 23.6074 24.3569 24.7818 30.0506C25.9846 35.8828 27.9624 40.0526 30.3455 42.5172C30.8191 43.007 30.9711 43.0007 31.0564 42.9971C31.0671 42.9966 31.0767 42.9962 31.0858 42.9968C31.5485 43.0284 32.7224 42.9268 34.8813 42.0323C36.9968 41.1558 39.3346 39.8295 42.0069 38.1648C42.6971 37.7349 43.4776 37.2371 44.3009 36.712C46.2106 35.4941 48.3502 34.1296 50.1249 33.1255C68.5459 22.7026 92.809 30.6798 102.474 48.2057C109.934 61.7311 113.487 75.8511 116.709 88.6535C117.31 91.0403 117.899 93.3814 118.5 95.6642C120.116 101.806 116.448 108.096 110.306 109.712C104.163 111.329 97.8739 107.66 96.2574 101.518C95.5405 98.7942 94.8725 96.162 94.2241 93.6072C90.9854 80.8462 88.2365 70.0151 82.3343 59.3131C78.5319 52.4184 68.1655 49.3443 61.4512 53.1433C60.193 53.8553 58.9618 54.6424 57.4112 55.6337C56.4727 56.2338 55.4172 56.9086 54.1678 57.6869C51.2353 59.5137 47.6005 61.6584 43.6851 63.2807C39.813 64.885 34.8976 66.3099 29.5221 65.9436C23.7657 65.5513 18.3043 63.152 13.8108 58.5048C7.19207 51.6596 3.90869 42.7102 2.25587 34.6965C0.574504 26.5444 0.347716 18.2298 0.690618 11.4731C1.01253 5.12994 6.4156 0.24879 12.7587 0.570705Z" fill="#FFEBC6"/>
</svg>
