<?xml version="1.0" encoding="UTF-8"?>
<svg id="Layer_2" data-name="Layer 2" xmlns="http://www.w3.org/2000/svg" viewBox="0 0 139.36 95.47">
  <defs>
    <style>
      .cls-1 {
        fill: #fe950b;
      }
    </style>
  </defs>
  <g id="Layer_1-2" data-name="Layer 1">
    <path class="cls-1" d="M43.2,52.16c6.63,0,12.01-5.38,12.01-12.01s-5.38-12.01-12.01-12.01-12.01,5.38-12.01,12.01,5.38,12.01,12.01,12.01"/>
    <path class="cls-1" d="M102.2,76.16c6.63,0,12.01-5.38,12.01-12.01s-5.38-12.01-12.01-12.01-12.01,5.38-12.01,12.01,5.38,12.01,12.01,12.01"/>
    <path class="cls-1" d="M9.73,54.04c2.49-14.45,6.78-30.83,21.38-37.38,12.85-5.77,37.3-12.84,46.73,2.2,4.81,7.66,0,16.68-4.36,23.3-4.42,6.71-9.59,13.06-11.85,20.92-4.46,15.48,4.63,28.08,19.93,31.07,18.52,3.62,38.42-.47,55.22-8.49,5.8-2.77,.74-11.4-5.05-8.63-14.94,7.14-35.36,11.76-51.61,6.45-8.89-2.9-11.41-10.73-8.38-19.23s9.34-14.49,13.38-22c7.8-14.5,5.26-31.39-10.59-38.84S39.67,1.46,25.33,8.37C8.92,16.29,2.96,34.69,.09,51.38c-1.09,6.29,8.55,9,9.64,2.66h0Z"/>
  </g>
</svg>