<?xml version="1.0" encoding="UTF-8"?>
<svg id="Layer_1" data-name="Layer 1" xmlns="http://www.w3.org/2000/svg" viewBox="0 0 318.87 124.11">
  <defs>
    <style>
      .cls-1 {
        fill: #f8951d;
      }
    </style>
  </defs>
  <path class="cls-1" d="M300.96,98.48c-1.63,0-3.1-.38-4.42-1.15-1.32-.77-2.36-1.85-3.13-3.24-.77-1.4-1.15-3-1.15-4.81s.38-3.41,1.15-4.81c.77-1.4,1.81-2.48,3.13-3.24,1.32-.77,2.79-1.15,4.42-1.15s3.1,.38,4.42,1.15c1.32,.77,2.36,1.85,3.13,3.24,.77,1.4,1.15,3,1.15,4.81s-.38,3.42-1.15,4.81c-.77,1.4-1.81,2.48-3.13,3.24-1.32,.77-2.79,1.15-4.42,1.15m0,7.55c3.41,0,6.47-.72,9.18-2.16,2.72-1.44,4.85-3.44,6.4-5.98,1.55-2.55,2.33-5.42,2.33-8.61s-.78-6.06-2.33-8.61c-1.55-2.55-3.68-4.54-6.4-5.98-2.72-1.44-5.78-2.16-9.18-2.16s-6.47,.72-9.19,2.16c-2.71,1.44-4.85,3.44-6.4,5.98-1.55,2.55-2.32,5.42-2.32,8.61s.77,6.06,2.32,8.61c1.55,2.55,3.68,4.54,6.4,5.98,2.72,1.44,5.78,2.16,9.19,2.16m-31.63-32.87v17.17l-14.22-17.17h-7.5v32.23h8.93v-17.17l14.23,17.17h7.5v-32.23h-8.93Zm-47.28,19.24l4.14-10.31,4.14,10.31h-8.29Zm13.49,12.98h9.48l-14.27-32.23h-8.98l-14.22,32.23h9.3l2.53-6.26h13.63l2.53,6.26Zm-39.73,0h9.12v-32.23h-9.12v32.23Zm-14.22-20.3c0,1.5-.48,2.66-1.43,3.47-.95,.81-2.36,1.22-4.23,1.22h-5.07v-9.44h5.07c1.87,0,3.28,.41,4.23,1.24,.95,.83,1.43,1.99,1.43,3.5m.09,20.3h9.76l-6.95-10.13c2.03-.98,3.58-2.34,4.67-4.07,1.09-1.73,1.63-3.77,1.63-6.1s-.58-4.54-1.75-6.33c-1.17-1.8-2.82-3.18-4.97-4.15-2.15-.97-4.68-1.45-7.59-1.45h-14.73v32.23h9.11v-8.56h4.97l5.85,8.56Zm-42.63-6.91c-1.63,0-3.1-.38-4.42-1.15-1.32-.77-2.36-1.85-3.13-3.24-.77-1.4-1.15-3-1.15-4.81s.38-3.41,1.15-4.81c.77-1.4,1.81-2.48,3.13-3.24,1.32-.77,2.79-1.15,4.42-1.15s3.1,.38,4.42,1.15c1.32,.77,2.36,1.85,3.13,3.24,.77,1.4,1.15,3,1.15,4.81s-.38,3.42-1.15,4.81c-.77,1.4-1.81,2.48-3.13,3.24-1.32,.77-2.79,1.15-4.42,1.15m0,7.55c3.41,0,6.47-.72,9.18-2.16,2.72-1.44,4.85-3.44,6.4-5.98,1.55-2.55,2.32-5.42,2.32-8.61s-.78-6.06-2.32-8.61c-1.55-2.55-3.68-4.54-6.4-5.98-2.71-1.44-5.78-2.16-9.18-2.16s-6.47,.72-9.18,2.16c-2.72,1.44-4.85,3.44-6.4,5.98-1.55,2.55-2.32,5.42-2.32,8.61s.78,6.06,2.32,8.61c1.55,2.55,3.68,4.54,6.4,5.98,2.71,1.44,5.78,2.16,9.18,2.16m-34.71,0c3.07,0,5.68-.47,7.83-1.41,2.15-.93,3.76-2.19,4.83-3.75,1.07-1.56,1.61-3.31,1.61-5.25,0-2.24-.59-4.01-1.77-5.32-1.18-1.31-2.58-2.26-4.19-2.86-1.61-.6-3.64-1.16-6.1-1.68-2.18-.46-3.76-.9-4.74-1.33s-1.47-1.07-1.47-1.93,.41-1.56,1.24-2.09c.83-.54,2.15-.81,3.96-.81,2.89,0,5.86,.83,8.93,2.49l2.81-6.77c-1.56-.92-3.38-1.62-5.43-2.09-2.06-.48-4.14-.71-6.26-.71-3.1,0-5.72,.46-7.85,1.38-2.14,.92-3.74,2.17-4.81,3.75-1.08,1.58-1.61,3.35-1.61,5.32,0,2.24,.58,4.02,1.75,5.34,1.16,1.32,2.56,2.28,4.19,2.88,1.63,.6,3.65,1.16,6.08,1.68,2.21,.49,3.81,.96,4.81,1.41,1,.45,1.5,1.13,1.5,2.05,0,1.75-1.75,2.62-5.25,2.62-1.84,0-3.71-.29-5.62-.88-1.9-.58-3.57-1.35-5.02-2.3l-2.99,6.72c1.53,1.08,3.53,1.93,5.98,2.58,2.46,.64,4.99,.97,7.6,.97"/>
  <path class="cls-1" d="M213.06,62.93h9.36V29.85h-9.36V62.93Zm-13.33,0h10.87l-14.22-18.43,13.52-14.65h-10.3l-12.81,13.75v-13.75h-9.26V62.93h9.26v-8.27l3.5-3.73,9.45,12Zm-35.54,0h10.87l-14.22-18.43,13.52-14.65h-10.3l-12.81,13.75v-13.75h-9.26V62.93h9.26v-8.27l3.5-3.73,9.45,12Zm-38.23,0h9.36V29.85h-9.36V62.93Zm-14.6-20.84c0,1.54-.49,2.74-1.46,3.57-.98,.83-2.43,1.25-4.35,1.25h-5.2v-9.69h5.2c1.92,0,3.37,.43,4.35,1.28,.98,.85,1.46,2.05,1.46,3.59m.1,20.84h10.02l-7.13-10.4c2.08-1.01,3.68-2.4,4.8-4.18,1.12-1.78,1.68-3.87,1.68-6.26s-.6-4.65-1.8-6.5c-1.2-1.84-2.9-3.26-5.1-4.25-2.21-.99-4.8-1.49-7.8-1.49h-15.12V62.93h9.36v-8.79h5.1l6,8.79Z"/>
  <g>
    <path class="cls-1" d="M41.5,80.55c13.23,0,23.95-10.72,23.95-23.95s-10.72-23.95-23.95-23.95-23.95,10.72-23.95,23.95,10.72,23.95,23.95,23.95"/>
    <path class="cls-1" d="M41.5,81.47c-13.71,0-24.87-11.16-24.87-24.87s11.16-24.87,24.87-24.87,24.87,11.16,24.87,24.87-11.16,24.87-24.87,24.87Zm0-47.9c-12.7,0-23.03,10.33-23.03,23.03s10.33,23.03,23.03,23.03,23.03-10.33,23.03-23.03-10.33-23.03-23.03-23.03Z"/>
    <g>
      <path class="cls-1" d="M41.5,123.16c-13.21,0-23.95-10.74-23.95-23.95,0-1.37,1.11-2.48,2.48-2.48s2.48,1.11,2.48,2.48c0,10.47,8.52,18.99,18.99,18.99s18.99-8.52,18.99-18.99-8.52-18.99-18.99-18.99c-1.37,0-2.48-1.11-2.48-2.48s1.11-2.48,2.48-2.48c13.21,0,23.95,10.74,23.95,23.95s-10.74,23.95-23.95,23.95Z"/>
      <path class="cls-1" d="M41.5,124.11c-13.73,0-24.89-11.17-24.89-24.89,0-1.89,1.54-3.42,3.42-3.42s3.42,1.54,3.42,3.42c0,9.95,8.1,18.05,18.05,18.05s18.05-8.1,18.05-18.05-8.1-18.05-18.05-18.05c-1.89,0-3.42-1.54-3.42-3.42s1.54-3.42,3.42-3.42c13.73,0,24.89,11.17,24.89,24.89s-11.17,24.89-24.89,24.89Zm-21.47-26.43c-.85,0-1.53,.69-1.53,1.53,0,12.69,10.32,23,23,23s23-10.32,23-23-10.32-23-23-23c-.85,0-1.53,.69-1.53,1.53s.69,1.53,1.53,1.53c10.99,0,19.94,8.94,19.94,19.94s-8.94,19.94-19.94,19.94-19.94-8.94-19.94-19.94c0-.85-.69-1.53-1.53-1.53Z"/>
    </g>
    <g>
      <path class="cls-1" d="M41.5,27.32c-1.53,0-2.76-1.24-2.76-2.76V3.71c0-1.53,1.24-2.76,2.76-2.76s2.76,1.24,2.76,2.76V24.55c0,1.53-1.24,2.76-2.76,2.76Z"/>
      <path class="cls-1" d="M41.5,28.26c-2.04,0-3.71-1.66-3.71-3.71V3.71c0-2.04,1.66-3.71,3.71-3.71s3.71,1.66,3.71,3.71V24.55c0,2.04-1.66,3.71-3.71,3.71Zm0-26.37c-1,0-1.82,.82-1.82,1.82V24.55c0,1,.82,1.82,1.82,1.82s1.82-.82,1.82-1.82V3.71c0-1-.82-1.82-1.82-1.82Z"/>
    </g>
    <g>
      <path class="cls-1" d="M41.5,107.85c-1.53,0-2.76-1.24-2.76-2.76v-24.3c0-1.53,1.24-2.76,2.76-2.76s2.76,1.24,2.76,2.76v24.3c0,1.53-1.24,2.76-2.76,2.76Z"/>
      <path class="cls-1" d="M41.5,108.79c-2.04,0-3.71-1.66-3.71-3.71v-24.3c0-2.04,1.66-3.71,3.71-3.71s3.71,1.66,3.71,3.71v24.3c0,2.04-1.66,3.71-3.71,3.71Zm0-29.82c-1,0-1.82,.82-1.82,1.82v24.3c0,1,.82,1.82,1.82,1.82s1.82-.82,1.82-1.82v-24.3c0-1-.82-1.82-1.82-1.82Z"/>
    </g>
    <g>
      <path class="cls-1" d="M18.45,36.1c-.71,0-1.41-.27-1.95-.81L1.75,20.55c-1.08-1.08-1.08-2.83,0-3.91,1.08-1.08,2.83-1.08,3.91,0l14.74,14.74c1.08,1.08,1.08,2.83,0,3.91-.54,.54-1.25,.81-1.95,.81Z"/>
      <path class="cls-1" d="M18.45,37.04c-.99,0-1.92-.39-2.62-1.09L1.09,21.21c-.7-.7-1.09-1.63-1.09-2.62s.39-1.92,1.09-2.62c1.45-1.45,3.8-1.44,5.24,0l14.74,14.74c.7,.7,1.09,1.63,1.09,2.62s-.39,1.92-1.09,2.62-1.63,1.09-2.62,1.09ZM3.71,16.78c-.47,0-.93,.18-1.29,.53-.34,.34-.53,.8-.53,1.29s.19,.94,.53,1.29l14.74,14.74c.69,.69,1.88,.69,2.57,0,.34-.34,.53-.8,.53-1.29s-.19-.94-.53-1.29L4.99,17.31c-.35-.35-.82-.53-1.29-.53Z"/>
    </g>
    <g>
      <path class="cls-1" d="M64.55,37.45c-.71,0-1.41-.27-1.95-.81-1.08-1.08-1.08-2.83,0-3.91l14.74-14.74c1.08-1.08,2.83-1.08,3.91,0s1.08,2.83,0,3.91l-14.74,14.74c-.54,.54-1.25,.81-1.95,.81Z"/>
      <path class="cls-1" d="M64.55,38.4c-.99,0-1.92-.39-2.62-1.09-.7-.7-1.09-1.63-1.09-2.62s.39-1.92,1.09-2.62l14.74-14.74c1.45-1.45,3.8-1.45,5.24,0,.7,.7,1.09,1.63,1.09,2.62s-.39,1.92-1.09,2.62l-14.74,14.74c-.7,.7-1.63,1.09-2.62,1.09Zm14.74-20.27c-.47,0-.93,.18-1.29,.53l-14.74,14.74c-.34,.34-.53,.8-.53,1.29s.19,.94,.53,1.29c.69,.69,1.88,.69,2.57,0l14.74-14.74c.34-.34,.53-.8,.53-1.29s-.19-.94-.53-1.29c-.35-.35-.82-.53-1.29-.53Z"/>
    </g>
  </g>
</svg>