<?xml version="1.0" encoding="utf-8"?>
<!-- Generator: Adobe Illustrator 26.5.2, SVG Export Plug-In . SVG Version: 6.00 Build 0)  -->
<svg version="1.1" id="Layer_2_00000034088787840099498430000011988819951917574797_"
	 xmlns="http://www.w3.org/2000/svg" xmlns:xlink="http://www.w3.org/1999/xlink" x="0px" y="0px" viewBox="0 0 281.9 318.9"
	 style="enable-background:new 0 0 281.9 318.9;" xml:space="preserve">
<style type="text/css">
	.st0{fill:#FEFFFF;}
</style>
<g id="Layer_1-2">
	<g>
		<path class="st0" d="M62.7,72c-2.4,0-4.8-0.9-6.6-2.8L6,19.2C2.3,15.6,2.3,9.6,6,5.9c3.7-3.7,9.6-3.7,13.3,0L69.3,56
			c3.7,3.7,3.7,9.6,0,13.3C67.5,71.1,65.1,72,62.7,72z"/>
		<path class="st0" d="M62.7,75.2c-3.4,0-6.5-1.3-8.9-3.7L3.7,21.5C1.3,19.1,0,15.9,0,12.6s1.3-6.5,3.7-8.9c4.9-4.9,12.9-4.9,17.8,0
			l50.1,50.1c2.4,2.4,3.7,5.5,3.7,8.9s-1.3,6.5-3.7,8.9C69.2,73.9,66,75.2,62.7,75.2L62.7,75.2z M12.6,6.4C11,6.4,9.4,7,8.2,8.2
			c-1.2,1.2-1.8,2.7-1.8,4.4s0.6,3.2,1.8,4.4L58.3,67c2.3,2.3,6.4,2.3,8.7,0c1.2-1.2,1.8-2.7,1.8-4.4s-0.6-3.2-1.8-4.4L17,8.2
			C15.8,7,14.2,6.4,12.6,6.4z"/>
	</g>
	<g>
		<path class="st0" d="M219.2,76.6c-2.4,0-4.8-0.9-6.6-2.8c-3.7-3.7-3.7-9.6,0-13.3l50.1-50.1c3.7-3.7,9.6-3.7,13.3,0
			c3.7,3.7,3.7,9.6,0,13.3l-50.1,50.1C224,75.7,221.6,76.6,219.2,76.6L219.2,76.6z"/>
		<path class="st0" d="M219.2,79.8c-3.4,0-6.5-1.3-8.9-3.7c-2.4-2.4-3.7-5.5-3.7-8.9s1.3-6.5,3.7-8.9l50.1-50.1
			c4.9-4.9,12.9-4.9,17.8,0c2.4,2.4,3.7,5.5,3.7,8.9s-1.3,6.5-3.7,8.9l-50.1,50.1C225.8,78.5,222.6,79.8,219.2,79.8L219.2,79.8z
			 M269.3,11c-1.6,0-3.2,0.6-4.4,1.8l-50.1,50.1c-1.2,1.2-1.8,2.7-1.8,4.4s0.6,3.2,1.8,4.4c2.3,2.3,6.4,2.3,8.7,0l50.1-50.1
			c1.2-1.2,1.8-2.7,1.8-4.4s-0.6-3.2-1.8-4.4C272.5,11.6,270.9,11,269.3,11L269.3,11z"/>
	</g>
	<path class="st0" d="M140.9,223c44.9,0,81.3-36.4,81.3-81.3s-36.4-81.3-81.3-81.3s-81.3,36.4-81.3,81.3S96,223,140.9,223"/>
	<path class="st0" d="M140.9,226.1c-46.6,0-84.5-37.9-84.5-84.5s37.9-84.5,84.5-84.5s84.5,37.9,84.5,84.5S187.5,226.1,140.9,226.1z
		 M140.9,63.5c-43.1,0-78.2,35.1-78.2,78.2s35.1,78.2,78.2,78.2s78.2-35.1,78.2-78.2S184.1,63.5,140.9,63.5L140.9,63.5z"/>
	<g>
		<path class="st0" d="M140.9,315.7c-5.2,0-9.4-4.2-9.4-9.4v-82.5c0-5.2,4.2-9.4,9.4-9.4s9.4,4.2,9.4,9.4v82.5
			C150.3,311.5,146.1,315.7,140.9,315.7z"/>
		<path class="st0" d="M140.9,318.9c-6.9,0-12.6-5.6-12.6-12.6v-82.5c0-6.9,5.6-12.6,12.6-12.6s12.6,5.6,12.6,12.6v82.5
			C153.5,313.3,147.9,318.9,140.9,318.9z M140.9,217.6c-3.4,0-6.2,2.8-6.2,6.2v82.5c0,3.4,2.8,6.2,6.2,6.2s6.2-2.8,6.2-6.2v-82.5
			C147.1,220.4,144.4,217.6,140.9,217.6z"/>
	</g>
</g>
</svg>
