<svg width="40" height="40" viewBox="0 0 40 40" fill="none" xmlns="http://www.w3.org/2000/svg">
<path d="M19.7775 0.211914C9.04275 0.211914 0.259766 8.9949 0.259766 19.7297C0.259766 30.4644 9.04275 39.2474 19.7775 39.2474C30.5123 39.2474 39.2953 30.4644 39.2953 19.7297C39.2953 8.9949 30.5123 0.211914 19.7775 0.211914ZM32.4641 12.5732H27.5846C27.2593 10.2961 26.934 8.34431 26.2834 6.71783C28.5605 7.69372 30.8376 9.97079 32.4641 12.5732ZM34.4158 19.7297C34.4158 20.7056 34.4158 21.3561 34.0905 22.332H27.9099C27.9099 21.6814 27.9099 20.7056 27.9099 19.7297C27.9099 18.7538 27.9099 18.1032 27.9099 17.1273H34.0905C34.4158 18.1032 34.4158 18.7538 34.4158 19.7297ZM19.7775 34.368C19.1269 33.7174 17.8257 31.4403 17.1752 27.2115H22.3799C21.7293 31.115 20.4281 33.7174 19.7775 34.368ZM16.5246 22.332C16.5246 21.3561 16.5246 20.7056 16.5246 19.7297C16.5246 18.7538 16.5246 18.1032 16.5246 17.1273H23.0305V19.7297C23.0305 19.7297 23.0305 21.3561 23.0305 22.332H16.5246ZM5.1392 19.7297C5.1392 18.7538 5.1392 18.1032 5.4645 17.1273H11.6451V19.7297C11.6451 19.7297 11.6451 21.3561 11.6451 22.332H5.4645C5.1392 21.3561 5.1392 20.7056 5.1392 19.7297ZM19.7775 5.09135C20.4281 5.41665 21.7293 8.01902 22.3799 12.2479H17.1752C17.8257 8.01902 19.1269 5.41665 19.7775 5.09135ZM13.5969 6.39254C12.9463 8.34431 12.621 10.2961 12.2957 12.5732H7.09098C8.71746 9.97079 10.9945 7.69372 13.5969 6.39254ZM7.09098 26.8862H11.9704C12.2957 29.1632 12.621 31.115 13.2716 32.7415C10.9945 31.7656 8.71746 29.4885 7.09098 26.8862ZM25.9581 33.0668C26.6087 31.4403 26.934 29.4885 27.2593 27.2115H32.1388C30.8376 29.4885 28.5605 31.7656 25.9581 33.0668Z" fill="black"/>
</svg>
